<svg width="100" height="35" viewBox="0 0 100 35" fill="none" xmlns="http://www.w3.org/2000/svg">
<g id="Logo">
<g id="Group">
<path id="Vector" d="M49.1255 0.561157H54.5625L51.9317 28.2019H47.7926L37.5501 11.2948L35.9365 28.2019H30.4996L33.1304 0.561157H37.2695L47.512 17.3982L49.1255 0.561157Z" fill="#272932"/>
</g>
<g id="Group_2">
<path id="Vector_2" d="M65.7871 28.7457C63.0511 28.7457 60.8062 28.1318 59.0523 26.9042C57.2985 25.6765 56.1409 24.0103 55.5797 21.9057L60.508 19.1872C61.3148 22.0109 63.2966 23.414 66.4711 23.414C67.997 23.414 69.137 23.1334 69.9087 22.5897C70.6804 22.0284 71.1013 21.3444 71.1715 20.5026C71.2592 19.5204 70.9084 18.7663 70.0841 18.2401C69.2598 17.6964 67.769 17.1176 65.5942 16.4862C64.384 16.1179 63.3843 15.7496 62.56 15.3813C61.7357 15.013 60.9289 14.5219 60.1397 13.9081C59.3505 13.2942 58.7717 12.505 58.4034 11.5579C58.0526 10.6108 57.9298 9.5059 58.0526 8.24312C58.2982 5.73511 59.368 3.75325 61.2797 2.26247C63.1739 0.736619 65.3837 0 67.8918 0C70.1367 0 72.0484 0.543695 73.6444 1.63109C75.2404 2.71848 76.4155 4.24433 77.1872 6.19111L72.3465 8.83943C71.4696 6.47173 69.821 5.27911 67.4007 5.27911C66.2607 5.27911 65.3487 5.54218 64.6647 6.0508C63.9631 6.55942 63.5773 7.22589 63.5071 8.0502C63.4194 8.92713 63.7176 9.62867 64.384 10.1548C65.0505 10.6985 66.3834 11.2773 68.3828 11.9087C69.2071 12.1718 69.821 12.3822 70.2419 12.5225C70.6628 12.6628 71.2416 12.8908 71.9607 13.189C72.6798 13.4872 73.241 13.7678 73.6093 14.0308C73.9952 14.2939 74.4336 14.6447 74.9072 15.1007C75.3983 15.5567 75.749 16.0127 75.977 16.4862C76.205 16.9598 76.3979 17.5386 76.5207 18.205C76.661 18.8715 76.6786 19.6081 76.6084 20.3973C76.3629 22.958 75.2404 24.9749 73.241 26.4832C71.2592 28.0091 68.7687 28.7457 65.7871 28.7457Z" fill="#272932"/>
</g>
<g id="Group_3">
<path id="Vector_3" fill-rule="evenodd" clip-rule="evenodd" d="M90.271 14.0133L86.0792 5.64742H90.9374C92.095 5.64742 93.0245 6.05081 93.7085 6.84004C94.3925 7.62928 94.6907 8.62898 94.5679 9.83914C94.4627 11.0318 93.9716 12.0139 93.1473 12.8207C92.323 13.5924 91.3759 13.9958 90.271 14.0133ZM80.6248 5.64742L84.8165 14.0133H79.818L78.4675 28.1845H83.922L84.7814 19.0995H89.6396C92.3054 19.0995 94.6205 18.205 96.6024 16.4161C98.5842 14.6272 99.7067 12.4348 99.9523 9.8216C100.198 7.20835 99.4963 5.01603 97.8476 3.2271C96.199 1.43817 94.0418 0.543701 91.3934 0.543701H81.0808L80.6248 5.64742Z" fill="#272932"/>
</g>
<g id="Group_4">
<path id="Vector_4" d="M33.0602 31.2362C33.3233 31.4467 33.446 31.7448 33.446 32.1132C33.446 32.4464 33.3759 32.7445 33.218 32.9725C33.0602 33.2005 32.8497 33.3935 32.5691 33.5338C32.2885 33.6565 31.9553 33.7267 31.5694 33.7267H30.6048L30.3768 34.8667H29.6402L30.4294 30.9205H31.9553C32.4288 30.9205 32.7971 31.0258 33.0602 31.2362ZM32.4288 32.8849C32.6217 32.727 32.727 32.499 32.727 32.2008C32.727 31.9904 32.6568 31.8325 32.5165 31.7273C32.3762 31.6221 32.1657 31.5695 31.8851 31.5695H31.0433L30.7276 33.1304H31.6045C31.9553 33.1129 32.2359 33.0427 32.4288 32.8849Z" fill="#272932"/>
<path id="Vector_5" d="M39.5846 33.9547H37.6027L37.0415 34.8667H36.2522L38.8129 30.9205H39.5319L40.5141 34.8667H39.795L39.5846 33.9547ZM39.4442 33.3935L39.0409 31.6572L37.9535 33.3935H39.4442Z" fill="#272932"/>
<path id="Vector_6" d="M46.0738 33.5337L45.8107 34.8842H45.0916L45.3723 33.4811L44.3375 30.938H45.0566L45.8283 32.8672L47.3892 30.938H48.1609L46.0738 33.5337Z" fill="#272932"/>
<path id="Vector_7" d="M56.2287 30.9204L55.4394 34.8666H54.7379L55.2465 32.2709L53.5628 34.4106H53.2296L52.3351 32.2183L51.8089 34.8491H51.1074L51.8966 30.9029H52.4929L53.5277 33.5337L55.5797 30.9029H56.2287V30.9204Z" fill="#272932"/>
<path id="Vector_8" d="M61.2271 31.5518L61.0167 32.5866H62.9284L62.8056 33.1829H60.8939L60.6834 34.2703H62.9108L62.7881 34.8842H59.824L60.6133 30.938H63.4896L63.3668 31.5518H61.2271Z" fill="#272932"/>
<path id="Vector_9" d="M71.2241 30.9205L70.4349 34.8667H69.8386L68.225 32.0956L67.6638 34.8667H66.9447L67.7339 30.9205H68.3302L69.9613 33.6916L70.505 30.9205H71.2241Z" fill="#272932"/>
<path id="Vector_10" d="M76.2927 31.5518H74.9773L75.1001 30.938H78.45L78.3272 31.5518H77.0118L76.3453 34.8842H75.6087L76.2927 31.5518Z" fill="#272932"/>
<path id="Vector_11" d="M81.9226 34.7965C81.642 34.7088 81.4315 34.6036 81.2737 34.4633L81.5894 33.8845C81.7472 34.0248 81.9577 34.1125 82.1857 34.2002C82.4137 34.2879 82.6417 34.323 82.8872 34.323C83.1854 34.323 83.4134 34.2704 83.5712 34.1651C83.7466 34.0599 83.8343 33.9371 83.8343 33.7618C83.8343 33.6565 83.7992 33.5864 83.7291 33.5162C83.6589 33.4461 83.5712 33.3934 83.466 33.3584C83.3608 33.3233 83.2205 33.2707 83.0276 33.2181C82.7645 33.1479 82.5716 33.0778 82.4137 33.0076C82.2559 32.9374 82.1155 32.8322 82.0103 32.6919C81.9051 32.5516 81.8349 32.3762 81.8349 32.1482C81.8349 31.8851 81.9051 31.6747 82.0454 31.4817C82.1857 31.2888 82.3962 31.1485 82.6592 31.0433C82.9223 30.9381 83.2205 30.8854 83.5537 30.8854C83.8168 30.8854 84.0448 30.9205 84.2728 30.9731C84.5008 31.0257 84.6937 31.1134 84.8691 31.2187L84.5885 31.7974C84.4482 31.6922 84.2728 31.6221 84.0974 31.5694C83.9045 31.5168 83.7291 31.4993 83.5186 31.4993C83.2205 31.4993 82.9925 31.5519 82.8171 31.6571C82.6417 31.7624 82.554 31.9027 82.554 32.0781C82.554 32.1833 82.5891 32.271 82.6592 32.3236C82.7294 32.3938 82.8171 32.4464 82.9223 32.4814C83.0276 32.5165 83.1679 32.5691 83.3608 32.6393C83.6063 32.7094 83.8168 32.7796 83.9746 32.8498C84.1325 32.9199 84.2728 33.0251 84.378 33.1479C84.4833 33.2882 84.5359 33.4461 84.5359 33.6565C84.5359 33.9196 84.4657 34.1476 84.3254 34.3405C84.1851 34.5335 83.9746 34.6738 83.7116 34.779C83.4485 34.8842 83.1503 34.9368 82.7996 34.9368C82.5014 34.9368 82.2032 34.8842 81.9226 34.7965Z" fill="#272932"/>
</g>
<g id="Group_5">
<path id="Vector_12" fill-rule="evenodd" clip-rule="evenodd" d="M9.24282 22.046H12.7856H14.5921C15.697 22.046 16.6616 21.5023 17.2053 20.5377L17.2404 20.4851C17.8016 19.5205 17.8016 18.4331 17.2404 17.4684L16.3459 15.9075L14.557 12.8383L18.0998 6.69977L21.6426 12.8383L22.5371 14.3992C24.1857 17.258 24.1857 20.6955 22.5371 23.5543L22.502 23.6069C20.8533 26.4657 17.8718 28.1845 14.557 28.1845H5.66496H3.49017L0 25.1328L3.50771 22.0635H5.68249L9.24282 22.046Z" fill="#004E98"/>
</g>
<g id="Group_6">
<path id="Vector_13" fill-rule="evenodd" clip-rule="evenodd" d="M17.5737 0.561229L23.3088 0.578768L26.8165 3.66555L23.3088 6.7348H21.134H18.5383H17.5912L14.0484 6.71726H12.2419C11.137 6.71726 10.2075 7.24342 9.64622 8.1905C9.64622 8.20804 9.62869 8.20804 9.62869 8.22558L9.55853 8.24312C9.55853 8.26066 9.54099 8.26066 9.54099 8.2782C8.9973 9.22528 8.9973 10.3127 9.55853 11.2598L10.453 12.8207L12.2244 15.8899L8.66407 22.0284L5.12128 15.8899L4.20927 14.329C2.56065 11.4702 2.57818 8.01512 4.22681 5.17387L4.26189 5.12126C5.92805 2.26247 8.9096 0.543691 12.2069 0.561229H17.5737Z" fill="#004E98"/>
</g>
</g>
</svg>
